<?xml version="1.0" standalone="no"?>
<!DOCTYPE svg PUBLIC "-//W3C//DTD SVG 20010904//EN"
 "http://www.w3.org/TR/2001/REC-SVG-20010904/DTD/svg10.dtd">
<svg version="1.0" xmlns="http://www.w3.org/2000/svg"
 width="352.000000pt" height="284.000000pt" viewBox="0 0 352.000000 284.000000"
 preserveAspectRatio="xMidYMid meet">

<g transform="translate(0.000000,284.000000) scale(0.100000,-0.100000)"
fill="#000000" stroke="none">
<path d="M539 2106 c6 -7 25 -16 41 -19 48 -10 37 17 266 -629 70 -196 103
-278 114 -278 11 0 44 82 114 283 55 155 102 285 105 289 4 4 51 -119 106
-273 55 -154 103 -285 106 -291 17 -28 39 13 93 168 159 466 226 655 240 683
18 33 44 51 75 51 12 0 21 7 21 15 0 13 -22 15 -136 15 -104 0 -135 -3 -132
-12 3 -7 19 -14 36 -16 34 -3 62 -33 62 -65 0 -16 -50 -168 -177 -535 -14 -41
-29 -70 -33 -65 -4 4 -28 69 -54 143 -26 74 -66 187 -89 250 -76 214 -77 260
-8 270 19 3 36 11 39 18 3 9 -37 12 -177 12 -156 0 -180 -2 -175 -15 4 -8 16
-15 28 -15 50 0 86 -51 131 -188 l17 -53 -72 -207 c-40 -114 -76 -211 -80
-215 -6 -7 -163 425 -203 560 -18 61 -6 96 35 101 15 2 32 10 38 18 11 12 -12
14 -165 14 -150 0 -176 -2 -166 -14z"/>
<path d="M2020 2090 c-9 -6 -10 -10 -3 -10 6 0 15 5 18 10 8 12 4 12 -15 0z"/>
<path d="M2680 2091 c0 -5 9 -7 20 -4 11 3 20 7 20 9 0 2 -9 4 -20 4 -11 0
-20 -4 -20 -9z"/>
<path d="M2218 2083 c7 -3 16 -2 19 1 4 3 -2 6 -13 5 -11 0 -14 -3 -6 -6z"/>
<path d="M2059 2063 c-13 -16 -12 -17 4 -4 9 7 17 15 17 17 0 8 -8 3 -21 -13z"/>
<path d="M2663 2065 c0 -8 4 -12 9 -9 5 3 6 10 3 15 -9 13 -12 11 -12 -6z"/>
<path d="M1910 2059 c0 -5 5 -7 10 -4 6 3 10 8 10 11 0 2 -4 4 -10 4 -5 0 -10
-5 -10 -11z"/>
<path d="M2696 2034 c-4 -10 -12 -14 -23 -10 -15 6 -14 4 2 -14 10 -11 23 -20
29 -19 6 0 6 3 -1 6 -7 2 -13 9 -13 15 0 6 6 8 14 5 10 -4 12 0 9 14 -6 23 -9
24 -17 3z"/>
<path d="M2601 1974 c0 -11 3 -14 6 -6 3 7 2 16 -1 19 -3 4 -6 -2 -5 -13z"/>
<path d="M2682 1906 c7 -8 17 -12 22 -9 4 3 2 9 -5 14 -22 13 -31 11 -17 -5z"/>
<path d="M1995 1889 c-11 -16 -1 -19 13 -3 7 8 8 14 3 14 -5 0 -13 -5 -16 -11z"/>
<path d="M2760 1895 c0 -7 30 -13 34 -7 3 4 -4 9 -15 9 -10 1 -19 0 -19 -2z"/>
<path d="M2030 1870 c-9 -6 -10 -10 -3 -10 6 0 15 5 18 10 8 12 4 12 -15 0z"/>
<path d="M2095 1693 c-9 -21 -36 -57 -62 -80 -26 -24 -40 -44 -32 -45 8 0 21
-1 29 -2 12 -1 16 -29 20 -171 5 -176 10 -199 41 -215 48 -26 107 -3 135 52
l16 31 -27 -21 c-15 -12 -36 -22 -45 -22 -37 0 -44 27 -48 185 -5 169 -8 161
62 164 29 1 43 7 35 15 -2 2 -24 6 -49 8 l-45 4 1 67 c1 37 -3 67 -7 67 -5 0
-16 -17 -24 -37z"/>
<path d="M1729 1601 c-69 -22 -106 -71 -89 -116 18 -48 70 -25 70 31 0 18 7
40 16 48 16 16 71 21 90 8 19 -13 34 -50 34 -85 0 -34 -2 -35 -78 -66 -102
-41 -152 -88 -152 -143 0 -112 95 -148 193 -74 35 27 47 25 47 -6 0 -21 35
-38 62 -30 23 6 78 56 78 71 0 7 -9 5 -25 -5 -13 -8 -29 -13 -35 -9 -6 4 -10
61 -11 148 -1 162 -5 183 -39 208 -28 21 -122 33 -161 20z m121 -261 c0 -80 0
-80 -32 -100 -61 -37 -111 -19 -124 46 -7 38 22 76 84 109 71 37 72 36 72 -55z"/>
<path d="M2365 1592 c-80 -38 -116 -104 -116 -211 0 -79 16 -123 60 -168 86
-86 216 -61 271 52 29 60 21 78 -12 27 -25 -37 -64 -60 -98 -57 -8 1 -25 3
-37 3 -53 4 -122 99 -123 170 l0 32 145 0 145 0 0 29 c0 33 -33 85 -72 114
-38 28 -113 32 -163 9z m112 -45 c11 -12 24 -37 28 -54 l7 -33 -101 0 c-67 0
-101 4 -101 11 0 25 35 81 59 94 33 19 80 11 108 -18z"/>
<path d="M2673 1583 c-60 -24 -87 -47 -42 -36 41 11 49 -18 49 -178 0 -158 -6
-179 -52 -179 -12 0 -18 -3 -14 -8 9 -9 216 -10 216 -1 0 4 -13 9 -28 12 -42
8 -52 42 -52 170 0 88 4 118 16 137 32 47 43 51 85 30 34 -18 39 -18 53 -4 22
22 20 50 -6 68 -35 25 -58 19 -100 -24 -21 -23 -39 -36 -39 -30 -1 5 -3 15 -4
20 -1 6 -3 19 -4 30 -1 25 -2 25 -78 -7z"/>
<path d="M762 1107 c-53 -56 -5 -112 128 -150 186 -54 486 -42 640 24 85 37
103 74 59 122 -22 24 -27 26 -19 10 35 -72 -101 -122 -348 -130 -274 -9 -458
42 -438 122 8 31 5 31 -22 2z"/>
<path d="M530 1086 c-69 -46 -101 -99 -92 -153 6 -37 70 -91 156 -133 131 -62
318 -106 576 -135 195 -21 281 -20 332 6 23 12 69 32 102 45 52 20 55 23 21
17 -22 -4 -139 -7 -260 -6 -176 0 -243 5 -335 21 -148 27 -273 63 -363 107
-150 72 -192 145 -126 220 36 41 36 41 -11 11z"/>
<path d="M639 1083 c-13 -16 -12 -17 4 -4 9 7 17 15 17 17 0 8 -8 3 -21 -13z"/>
<path d="M616 1012 c-3 -5 1 -9 9 -9 8 0 12 4 9 9 -3 4 -7 8 -9 8 -2 0 -6 -4
-9 -8z"/>
<path d="M635 960 c-13 -6 -15 -9 -5 -9 8 0 22 4 30 9 18 12 2 12 -25 0z"/>
<path d="M788 903 c7 -3 16 -2 19 1 4 3 -2 6 -13 5 -11 0 -14 -3 -6 -6z"/>
<path d="M2118 873 c7 -3 16 -2 19 1 4 3 -2 6 -13 5 -11 0 -14 -3 -6 -6z"/>
<path d="M2390 870 c-8 -5 -10 -10 -5 -10 6 0 17 5 25 10 8 5 11 10 5 10 -5 0
-17 -5 -25 -10z"/>
<path d="M1757 859 c7 -7 15 -10 18 -7 3 3 -2 9 -12 12 -14 6 -15 5 -6 -5z"/>
<path d="M2900 866 c0 -2 7 -7 16 -10 8 -3 12 -2 9 4 -6 10 -25 14 -25 6z"/>
<path d="M2113 853 c9 -2 23 -2 30 0 6 3 -1 5 -18 5 -16 0 -22 -2 -12 -5z"/>
<path d="M2208 853 c7 -3 16 -2 19 1 4 3 -2 6 -13 5 -11 0 -14 -3 -6 -6z"/>
<path d="M940 840 c8 -5 20 -10 25 -10 6 0 3 5 -5 10 -8 5 -19 10 -25 10 -5 0
-3 -5 5 -10z"/>
<path d="M2628 823 c6 -2 9 -10 6 -15 -4 -7 -2 -8 5 -4 13 9 5 26 -12 25 -9 0
-8 -2 1 -6z"/>
<path d="M1608 803 c6 -2 18 -2 25 0 6 3 1 5 -13 5 -14 0 -19 -2 -12 -5z"/>
<path d="M1908 760 c-68 -11 -196 -53 -246 -81 -21 -11 -29 -18 -19 -15 123
37 365 47 507 22 334 -62 402 -59 593 27 75 33 85 46 16 21 -28 -10 -90 -18
-169 -21 -105 -4 -149 -1 -275 21 -169 30 -322 39 -407 26z"/>
</g>
</svg>
