<?xml version="1.0" encoding="UTF-8"?>
<!DOCTYPE svg PUBLIC "-//W3C//DTD SVG 1.1//EN" "http://www.w3.org/Graphics/SVG/1.1/DTD/svg11.dtd">
<svg xmlns="http://www.w3.org/2000/svg" version="1.1" width="279px" height="328px" style="shape-rendering:geometricPrecision; text-rendering:geometricPrecision; image-rendering:optimizeQuality; fill-rule:evenodd; clip-rule:evenodd" xmlns:xlink="http://www.w3.org/1999/xlink">
<g><path style="opacity:1" fill="#fce6cd" d="M 160.5,57.5 C 178.66,64.135 186.327,77.135 183.5,96.5C 182.325,96.719 181.325,96.3857 180.5,95.5C 183.888,77.9293 177.221,66.2626 160.5,60.5C 160.5,59.5 160.5,58.5 160.5,57.5 Z"/></g>
<g><path style="opacity:1" fill="#fdefdf" d="M 146.5,82.5 C 149.727,82.6761 152.727,83.3428 155.5,84.5C 152.171,84.7847 149.171,84.1181 146.5,82.5 Z"/></g>
<g><path style="opacity:1" fill="#f8ce99" d="M 146.5,82.5 C 149.171,84.1181 152.171,84.7847 155.5,84.5C 156.497,84.4701 157.164,84.9701 157.5,86C 155.564,93.7882 153.897,101.622 152.5,109.5C 150.856,109.714 149.356,109.38 148,108.5C 146.856,111.08 146.022,113.747 145.5,116.5C 143.96,118.838 143.294,121.505 143.5,124.5C 143.5,124.833 143.5,125.167 143.5,125.5C 141.882,128.171 141.215,131.171 141.5,134.5C 140.904,141.108 139.57,147.442 137.5,153.5C 136.903,153.735 136.57,154.235 136.5,155C 137.742,156.651 138.576,158.485 139,160.5C 139.465,164.848 139.965,169.181 140.5,173.5C 132.623,172.194 124.957,170.527 117.5,168.5C 118.496,168.586 119.329,168.252 120,167.5C 122.602,161.947 125.936,156.947 130,152.5C 131.315,145.421 132.815,138.421 134.5,131.5C 136.575,127.526 137.575,123.192 137.5,118.5C 137.594,114.864 138.261,111.364 139.5,108C 138.944,107.617 138.611,107.117 138.5,106.5C 137.791,105.596 136.791,105.263 135.5,105.5C 135.5,104.5 135.5,103.5 135.5,102.5C 136.191,95.7118 137.524,89.0452 139.5,82.5C 141.859,81.2857 144.192,81.2857 146.5,82.5 Z"/></g>
<g><path style="opacity:1" fill="#fbe3c9" d="M 157.5,68.5 C 169.355,72.5199 174.355,80.8532 172.5,93.5C 171.325,93.719 170.325,93.3857 169.5,92.5C 171.955,81.7382 167.955,74.7382 157.5,71.5C 157.5,70.5 157.5,69.5 157.5,68.5 Z"/></g>
<g><path style="opacity:1" fill="#fbe5cb" d="M 163.5,48.5 C 179.172,53.1088 189.005,63.4421 193,79.5C 193.667,85.1667 193.667,90.8333 193,96.5C 192.751,97.624 192.251,98.624 191.5,99.5C 194.758,76.3459 185.758,60.0126 164.5,50.5C 163.702,50.0431 163.369,49.3764 163.5,48.5 Z"/></g>
<g><path style="opacity:1" fill="#fcf0df" d="M 135.5,102.5 C 135.5,103.5 135.5,104.5 135.5,105.5C 136.791,105.263 137.791,105.596 138.5,106.5C 137.167,106.5 135.833,106.5 134.5,106.5C 134.232,104.901 134.566,103.568 135.5,102.5 Z"/></g>
<g><path style="opacity:1" fill="#fdf3e8" d="M 145.5,116.5 C 145.435,119.428 144.768,122.095 143.5,124.5C 143.294,121.505 143.96,118.838 145.5,116.5 Z"/></g>
<g><path style="opacity:1" fill="#fbe7ce" d="M 137.5,118.5 C 137.575,123.192 136.575,127.526 134.5,131.5C 134.882,126.908 135.882,122.575 137.5,118.5 Z"/></g>
<g><path style="opacity:1" fill="#fdeede" d="M 143.5,125.5 C 143.324,128.727 142.657,131.727 141.5,134.5C 141.215,131.171 141.882,128.171 143.5,125.5 Z"/></g>
<g><path style="opacity:1" fill="#fbe5c9" d="M 137.5,153.5 C 138.382,155.084 139.215,156.751 140,158.5C 140.501,163.508 141.001,168.508 141.5,173.5C 141.167,173.5 140.833,173.5 140.5,173.5C 139.965,169.181 139.465,164.848 139,160.5C 138.576,158.485 137.742,156.651 136.5,155C 136.57,154.235 136.903,153.735 137.5,153.5 Z"/></g>
<g><path style="opacity:1" fill="#f09619" d="M 117.5,168.5 C 124.957,170.527 132.623,172.194 140.5,173.5C 140.833,173.5 141.167,173.5 141.5,173.5C 146.056,173.101 148.722,175.101 149.5,179.5C 148.637,178.537 147.97,178.537 147.5,179.5C 150.5,185.5 153.5,191.5 156.5,197.5C 156.957,198.298 157.624,198.631 158.5,198.5C 158.833,199.167 159.167,199.833 159.5,200.5C 158.913,207.109 157.579,213.442 155.5,219.5C 154.732,220.263 154.232,221.263 154,222.5C 132.286,217.653 110.453,213.32 88.5,209.5C 88.5,207.5 88.5,205.5 88.5,203.5C 88.7878,200.061 89.4544,196.728 90.5,193.5C 92.0395,191.162 92.7062,188.495 92.5,185.5C 94.7488,184.92 96.4154,183.587 97.5,181.5C 100.089,180.581 102.089,178.914 103.5,176.5C 106.089,175.581 108.089,173.914 109.5,171.5C 111.299,167.756 113.966,166.756 117.5,168.5 Z"/></g>
<g><path style="opacity:1" fill="#fabc6e" d="M 109.5,171.5 C 108.089,173.914 106.089,175.581 103.5,176.5C 104.911,174.086 106.911,172.419 109.5,171.5 Z"/></g>
<g><path style="opacity:1" fill="#fac27b" d="M 103.5,176.5 C 102.089,178.914 100.089,180.581 97.5,181.5C 98.9108,179.086 100.911,177.419 103.5,176.5 Z"/></g>
<g><path style="opacity:1" fill="#fbca8b" d="M 97.5,181.5 C 96.4154,183.587 94.7488,184.92 92.5,185.5C 93.5846,183.413 95.2512,182.08 97.5,181.5 Z"/></g>
<g><path style="opacity:1" fill="#fad4a1" d="M 92.5,185.5 C 92.7062,188.495 92.0395,191.162 90.5,193.5C 90.5651,190.572 91.2318,187.905 92.5,185.5 Z"/></g>
<g><path style="opacity:1" fill="#f8a947" d="M 149.5,179.5 C 153.008,185.182 156.008,191.182 158.5,197.5C 158.5,197.833 158.5,198.167 158.5,198.5C 157.624,198.631 156.957,198.298 156.5,197.5C 153.5,191.5 150.5,185.5 147.5,179.5C 147.97,178.537 148.637,178.537 149.5,179.5 Z"/></g>
<g><path style="opacity:1" fill="#ffedd9" d="M 158.5,197.5 C 160.382,198.221 160.715,199.221 159.5,200.5C 159.167,199.833 158.833,199.167 158.5,198.5C 158.5,198.167 158.5,197.833 158.5,197.5 Z"/></g>
<g><path style="opacity:1" fill="#f6ca92" d="M 88.5,203.5 C 88.5,205.5 88.5,207.5 88.5,209.5C 110.453,213.32 132.286,217.653 154,222.5C 154.232,221.263 154.732,220.263 155.5,219.5C 155.5,220.5 155.5,221.5 155.5,222.5C 157.099,222.232 158.432,222.566 159.5,223.5C 161.531,223.972 163.198,224.972 164.5,226.5C 164.5,227.167 164.5,227.833 164.5,228.5C 146.566,229.387 128.899,231.387 111.5,234.5C 105.823,235.02 100.157,235.686 94.5,236.5C 93.2739,236.48 92.2739,236.147 91.5,235.5C 91.5304,231.382 92.1971,227.382 93.5,223.5C 94.6921,222.434 94.3588,221.601 92.5,221C 90.5273,220.505 88.5273,220.338 86.5,220.5C 82.4432,220.152 78.4432,219.486 74.5,218.5C 74.8023,215.627 75.469,212.961 76.5,210.5C 77.404,209.791 77.7373,208.791 77.5,207.5C 81.0151,208.239 84.3485,208.239 87.5,207.5C 87.2322,205.901 87.5655,204.568 88.5,203.5 Z"/></g>
<g><path style="opacity:1" fill="#fcecd9" d="M 87.5,207.5 C 84.3485,208.239 81.0151,208.239 77.5,207.5C 77.7373,208.791 77.404,209.791 76.5,210.5C 76.2148,208.712 76.5481,207.045 77.5,205.5C 80.757,206.551 84.0903,207.218 87.5,207.5 Z"/></g>
<g><path style="opacity:1" fill="#fcebd6" d="M 86.5,220.5 C 88.5273,220.338 90.5273,220.505 92.5,221C 94.3588,221.601 94.6921,222.434 93.5,223.5C 91.3085,222.131 88.9752,221.131 86.5,220.5 Z"/></g>
<g><path style="opacity:1" fill="#fef5ea" d="M 159.5,223.5 C 161.5,223.5 163.5,223.5 165.5,223.5C 165.737,224.791 165.404,225.791 164.5,226.5C 163.198,224.972 161.531,223.972 159.5,223.5 Z"/></g>
<g><path style="opacity:1" fill="#becedf" d="M 164.5,228.5 C 176.917,228.302 189.25,229.136 201.5,231C 173.1,229.818 144.767,230.985 116.5,234.5C 114.833,234.5 113.167,234.5 111.5,234.5C 128.899,231.387 146.566,229.387 164.5,228.5 Z"/></g>
<g><path style="opacity:1" fill="#ebeeee" d="M 111.5,234.5 C 113.167,234.5 114.833,234.5 116.5,234.5C 106.699,236.31 96.6992,237.643 86.5,238.5C 88.2202,237.692 89.8869,236.692 91.5,235.5C 92.2739,236.147 93.2739,236.48 94.5,236.5C 100.157,235.686 105.823,235.02 111.5,234.5 Z"/></g>
<g><path style="opacity:1" fill="#fdfefe" d="M 86.5,238.5 C 86.1034,239.525 85.4368,239.692 84.5,239C 85.0944,238.536 85.7611,238.369 86.5,238.5 Z"/></g>
<g><path style="opacity:1" fill="#ebf1f8" d="M 98.5,249.5 C 97.7611,249.369 97.0944,249.536 96.5,250C 98.0581,250.21 99.3915,250.71 100.5,251.5C 87.6924,250.34 75.3591,247.34 63.5,242.5C 74.9579,244.925 86.6245,247.258 98.5,249.5 Z"/></g>
<g><path style="opacity:1" fill="#d4e2f1" d="M 182.5,247.5 C 180.393,246.532 178.059,246.198 175.5,246.5C 186.73,244.682 198.064,243.182 209.5,242C 208.672,242.915 207.672,243.581 206.5,244C 198.506,245.277 190.506,246.444 182.5,247.5 Z"/></g>
<g><path style="opacity:1" fill="#bcd1ea" d="M 68.5,249.5 C 67.1266,249.343 65.7932,249.51 64.5,250C 65.056,250.383 65.3893,250.883 65.5,251.5C 56.6163,247.558 47.6163,243.892 38.5,240.5C 49.0989,241.319 59.0989,244.319 68.5,249.5 Z"/></g>
<g><path style="opacity:1" fill="#b7cee9" d="M 175.5,246.5 C 178.059,246.198 180.393,246.532 182.5,247.5C 168.697,250.475 154.697,252.142 140.5,252.5C 141.952,251.698 143.618,251.198 145.5,251C 130.661,250.831 115.994,250.331 101.5,249.5C 126.23,249.932 150.897,248.932 175.5,246.5 Z"/></g>
<g><path style="opacity:1" fill="#a1c0e1" d="M 98.5,249.5 C 99.5,249.5 100.5,249.5 101.5,249.5C 115.994,250.331 130.661,250.831 145.5,251C 143.618,251.198 141.952,251.698 140.5,252.5C 127.165,253.821 113.832,253.487 100.5,251.5C 99.3915,250.71 98.0581,250.21 96.5,250C 97.0944,249.536 97.7611,249.369 98.5,249.5 Z"/></g>
<g><path style="opacity:1" fill="#a5c2e2" d="M 68.5,249.5 C 81.3608,255.287 94.6941,259.787 108.5,263C 127.102,265.736 145.769,266.236 164.5,264.5C 156.053,266.02 147.387,266.687 138.5,266.5C 131.151,266.426 123.818,266.092 116.5,265.5C 115.167,265.833 113.833,266.167 112.5,266.5C 113.901,267.521 115.235,268.521 116.5,269.5C 98.4488,266.262 81.4488,260.262 65.5,251.5C 65.3893,250.883 65.056,250.383 64.5,250C 65.7932,249.51 67.1266,249.343 68.5,249.5 Z"/></g>
<g><path style="opacity:1" fill="#f4f7fb" d="M 180.5,262.5 C 180.897,261.475 181.563,261.308 182.5,262C 181.906,262.464 181.239,262.631 180.5,262.5 Z"/></g>
<g><path style="opacity:1" fill="#c5d7eb" d="M 180.5,262.5 C 180.5,262.833 180.5,263.167 180.5,263.5C 175.195,264.194 169.862,264.528 164.5,264.5C 169.633,263.335 174.966,262.668 180.5,262.5 Z"/></g>
<g><path style="opacity:1" fill="#85add8" d="M 180.5,263.5 C 170.785,266.564 160.785,268.898 150.5,270.5C 141.833,270.5 133.167,270.5 124.5,270.5C 121.721,270.721 119.054,270.388 116.5,269.5C 115.235,268.521 113.901,267.521 112.5,266.5C 113.833,266.167 115.167,265.833 116.5,265.5C 123.818,266.092 131.151,266.426 138.5,266.5C 147.387,266.687 156.053,266.02 164.5,264.5C 169.862,264.528 175.195,264.194 180.5,263.5 Z"/></g>
<g><path style="opacity:1" fill="#bad0e8" d="M 124.5,270.5 C 133.167,270.5 141.833,270.5 150.5,270.5C 148.362,271.404 146.029,272.071 143.5,272.5C 137.015,271.909 130.681,271.243 124.5,270.5 Z"/></g>
</svg>
